PathFileType	4	(X/Y/Z)	D:\TRACE\v60_Jaco2_6-2-23\v60_baseline_4-platform.trc
DataRate	CameraRate	NumFrames	NumMarkers	Units	OrigDataRate	OrigDataStartFrame	OrigNumFrames
100.00	100.00	      67	5	mm	100.00	2438	      6500
Frame#	Time	Left_Front			Right_Front			Left_Aft			Right_Aft			Post			
		X1	Y1	Z1	X2	Y2	Z2	X3	Y3	Z3	X4	Y4	Z4	X5	Y5	Z5	

2438	24.370	-800.57001	8.75653	-638.89807	769.34186	10.14584	-644.41260	-708.93097	7.98482	496.26727	732.74225	6.57394	505.25201	-14.01905	1308.22229	-962.39001	
2439	24.380	-800.51868	8.86912	-638.92755	769.36658	10.05634	-644.36975	-708.15430	7.05065	496.62512	732.38904	6.58535	505.52005	-14.00062	1308.12927	-962.26752	
2440	24.390	-800.43683	9.06625	-638.90076	769.41479	10.07942	-644.35760	-708.62720	7.84639	496.12769	732.83423	6.57106	505.42960	-14.04764	1308.11694	-962.08289	
2441	24.400	-800.49597	9.11365	-638.71448	769.39893	10.12155	-644.38556	-708.66229	7.98448	496.09061	732.96338	6.69271	505.43893	-14.16898	1308.15784	-961.74286	
2442	24.410	-800.55786	9.00624	-638.74542	769.43542	10.19448	-644.40460	-708.68018	8.07953	496.07086	733.05402	6.76435	505.41452	-14.18184	1308.15784	-961.47809	
2443	24.420	-800.55688	8.91677	-638.80933	769.47638	10.18009	-644.36035	-708.77460	8.04778	496.04031	733.02393	6.77405	505.41559	-14.16527	1308.07715	-961.35266	
2444	24.430	-800.54517	8.85793	-638.87592	769.45007	10.09535	-644.36676	-708.78326	7.94577	495.99924	733.17816	6.82076	505.49860	-14.08292	1308.04785	-961.32056	
2445	24.440	-800.49268	8.95330	-638.88867	769.39270	10.07778	-644.36200	-708.74335	7.90445	496.02365	733.08270	6.75239	505.56061	-14.20560	1308.07605	-961.47729	
2446	24.450	-800.47070	8.97274	-638.83362	769.38623	10.09169	-644.38940	-708.70477	7.93907	496.08899	733.07672	6.77343	505.53479	-14.07782	1308.14734	-961.75482	
2447	24.460	-800.52057	9.07077	-638.75415	769.39832	10.15393	-644.39764	-708.66766	8.00037	496.09924	733.12079	6.80214	505.50815	-14.10714	1308.20386	-962.03217	
2448	24.470	-800.57880	8.98892	-638.74579	769.39246	10.18831	-644.43695	-708.74628	7.94823	496.11969	733.16327	6.76788	505.54797	-14.04627	1308.27307	-962.21320	
2449	24.480	-800.55811	9.00155	-638.79712	769.39166	10.18384	-644.42780	-708.73999	7.95364	496.12115	733.17999	6.79532	505.57419	-14.03245	1308.20300	-962.24072	
2450	24.490	-800.47736	8.86215	-638.89917	769.37958	10.10977	-644.37567	-708.74249	7.90418	496.06842	733.12085	6.72798	505.60446	-14.01124	1308.11597	-962.14276	
2451	24.500	-800.46289	8.91039	-638.90088	769.32526	10.07805	-644.39917	-708.66882	7.96259	496.06830	733.08325	6.77844	505.56274	-14.08503	1308.07825	-962.05365	
2452	24.510	-800.46625	8.95967	-638.82391	769.42944	10.09051	-644.35706	-708.69250	7.99656	496.08252	733.16028	6.84605	505.54297	-14.07807	1308.07764	-961.99170	
2453	24.520	-800.51965	9.03156	-638.77954	769.42468	10.14033	-644.40100	-708.67517	8.03416	496.06183	732.94067	6.88910	505.67554	-14.11751	1308.15271	-961.83356	
2454	24.530	-800.54999	8.97474	-638.78442	769.40173	10.18366	-644.43695	-708.58221	7.70642	496.11093	733.22168	6.81481	505.58398	-14.14278	1308.18433	-961.77295	
2455	24.540	-800.55176	8.93321	-638.83875	769.37592	10.20610	-644.39294	-708.11206	7.03551	496.76785	733.22168	6.82147	505.67416	-14.12537	1308.21899	-961.76929	
2456	24.550	-800.48950	8.88858	-638.90173	769.41498	10.10120	-644.36353	-708.47095	7.57382	496.12341	733.26563	6.83361	505.76639	-14.04706	1308.14404	-961.74347	
2457	24.560	-800.44403	8.97667	-638.84808	769.40448	10.09111	-644.36694	-708.49402	7.60605	496.08694	733.24078	6.83478	505.83051	-14.11543	1308.16638	-961.66339	
2458	24.570	-800.55560	9.10991	-638.74963	769.43439	10.15111	-644.35791	-708.54633	7.70670	496.08987	733.33215	6.86105	505.78525	-14.23898	1308.23474	-961.76154	
2459	24.580	-800.55988	9.07481	-638.76617	769.43121	10.16697	-644.40948	-708.54181	7.67157	496.11777	733.40723	6.90826	505.78568	-14.21479	1308.23291	-961.71783	
2460	24.590	-800.57257	8.94359	-638.76178	769.42383	10.12500	-644.39130	-708.95264	8.06200	496.33527	733.35468	6.91310	505.77652	-14.15426	1308.18726	-961.75757	
2461	24.600	-800.51941	8.85903	-638.84247	769.40546	10.10894	-644.37885	-708.92664	8.16705	495.94501	733.32904	6.90078	505.78366	-14.08788	1308.10168	-961.79004	
2462	24.610	-800.48578	8.87192	-638.86926	769.34619	10.04459	-644.39642	-708.79083	8.04429	496.16422	733.27209	6.86227	505.81006	-13.98827	1308.05750	-961.90228	
2463	24.620	-800.54413	8.97839	-638.79449	769.37921	10.10100	-644.37927	-708.78491	8.01884	496.20422	733.30206	6.88192	505.78812	-14.07273	1308.08484	-962.02863	
2464	24.630	-800.55072	9.03928	-638.77991	769.45178	10.11386	-644.33820	-708.76898	7.98909	496.22488	733.39606	6.90137	505.76663	-14.01722	1308.14441	-962.18945	
2465	24.640	-800.57806	9.00119	-638.76288	769.39789	10.18158	-644.40991	-708.84418	7.97468	496.21591	733.10065	6.94745	505.89560	-14.04038	1308.22131	-962.22021	
2466	24.650	-800.54547	8.97292	-638.75787	769.34076	10.17176	-644.40839	-708.77600	7.99486	496.21725	733.35278	6.88684	505.77466	-14.01111	1308.20374	-962.14703	
2467	24.660	-800.48907	8.93543	-638.84088	769.40918	10.16882	-644.39532	-708.79651	8.03737	496.21591	732.98334	6.91269	505.95157	-14.07603	1308.17432	-961.98096	
2468	24.670	-800.47711	9.05713	-638.83325	769.32690	10.29167	-644.43927	-708.78320	7.99233	496.25137	732.93878	6.89059	505.93234	-14.04121	1308.13867	-961.76215	
2469	24.680	-800.50098	9.17619	-638.77307	769.33844	10.34793	-644.41443	-708.87933	8.14518	496.21735	733.36029	6.88998	505.86032	-14.11482	1308.13721	-961.58594	
2470	24.690	-800.60913	8.84746	-638.80035	769.42059	10.17769	-644.37183	-708.86963	8.22415	496.22375	733.53503	6.91827	505.83301	-14.08335	1308.13452	-961.46802	
2471	24.700	-800.61371	8.65047	-638.92999	769.35852	10.04072	-644.40491	-708.94824	8.21318	496.17087	733.54865	7.03118	505.84183	-14.16200	1308.08032	-961.35846	
2472	24.710	-800.57428	8.58968	-638.94611	769.34558	10.12336	-644.41028	-708.87573	8.09985	496.22318	733.46716	6.90828	505.84769	-14.05130	1308.04346	-961.43738	
2473	24.720	-800.49915	8.75892	-638.87268	769.30505	10.24194	-644.43903	-708.87720	8.14076	496.23343	733.43634	6.94398	505.86099	-13.97591	1308.08252	-961.70184	
2474	24.730	-800.46100	9.00658	-638.84296	769.40643	10.23155	-644.42169	-708.86353	8.16541	496.21555	733.20337	7.02916	505.95886	-13.97820	1308.14905	-962.04108	
2475	24.740	-800.56891	9.03598	-638.71527	769.37805	10.20718	-644.43555	-708.85870	8.20030	496.22244	733.48242	6.94105	505.83585	-14.04009	1308.24695	-962.27490	
2476	24.750	-800.62805	8.87361	-638.78088	769.37988	10.26851	-644.42523	-708.79913	8.08280	496.23575	733.47888	6.93318	505.83643	-13.96051	1308.27429	-962.40112	
2477	24.760	-800.64618	8.69277	-638.84637	769.39960	10.22549	-644.41754	-708.86700	8.04254	496.21805	733.39880	6.91830	505.86737	-13.96127	1308.21106	-962.36469	
2478	24.770	-800.51758	8.76967	-638.94818	769.35840	10.14411	-644.38745	-708.80688	7.99776	496.21188	733.36621	6.86691	505.90909	-13.94495	1308.09302	-962.21069	
2479	24.780	-800.47021	8.88921	-638.86371	769.34912	10.13540	-644.39642	-708.73663	7.97099	496.29984	733.39905	6.89520	505.88492	-14.00605	1308.09961	-962.06952	
2480	24.790	-800.50244	8.94421	-638.76746	769.32300	10.20780	-644.45740	-708.72504	8.08234	496.26489	733.64380	6.99443	505.89871	-14.01650	1308.16101	-961.83112	
2481	24.800	-800.58081	8.83971	-638.76141	769.42358	10.30181	-644.42432	-708.74591	8.04980	496.28641	733.31769	6.89764	505.52502	-14.16181	1308.17200	-961.58130	
2482	24.810	-800.60999	8.81659	-638.82764	769.32123	10.23577	-644.44946	-708.86938	8.13557	496.11707	733.33301	6.93807	505.54245	-14.09987	1308.07178	-961.41034	
2483	24.820	-800.57477	8.73520	-638.89783	769.31580	10.22344	-644.43079	-708.91870	8.14266	496.09018	733.26141	6.86809	505.56836	-14.02925	1307.99304	-961.34631	
2484	24.830	-800.49683	8.78108	-638.87274	769.33521	10.16141	-644.42999	-709.10138	8.47052	495.96289	733.17609	6.79371	505.61572	-14.10456	1308.04602	-961.52722	
2485	24.840	-800.49432	8.87154	-638.83270	769.37860	10.19172	-644.40411	-709.22974	8.79669	495.86636	733.28870	6.82972	505.59766	-13.99214	1308.12500	-961.68188	
2486	24.850	-800.54578	8.92956	-638.75946	769.35687	10.19098	-644.45581	-708.65948	7.93222	496.32959	733.33575	6.87745	505.55289	-14.02781	1308.19543	-961.96460	
2487	24.860	-800.62805	8.97441	-638.74841	769.31409	10.29652	-644.43121	-708.82086	8.03055	496.11423	733.10516	6.97603	505.62997	-13.97446	1308.25269	-962.15961	
2488	24.870	-800.59918	8.85692	-638.81458	769.40961	10.23981	-644.40424	-708.86487	8.04966	496.16681	733.26343	6.85763	505.56754	-13.94459	1308.15601	-962.20831	
2489	24.880	-800.56226	8.73326	-638.91699	769.36188	10.15134	-644.41437	-708.80743	8.01059	496.20688	733.18726	6.78606	505.62088	-13.91677	1308.04895	-962.15527	
2490	24.890	-800.51141	8.71139	-638.89856	769.29968	10.16951	-644.39636	-708.77179	8.02093	496.25171	733.72864	7.20459	506.00616	-13.96690	1308.01221	-962.08844	
2491	24.900	-800.52991	8.86692	-638.83289	769.28479	10.20848	-644.39355	-708.78558	8.07522	496.24533	733.56964	7.02634	505.89590	-13.91563	1308.04871	-961.94250	
2492	24.910	-800.57715	8.88603	-638.80457	769.28717	10.28090	-644.46790	-708.78369	8.12514	496.23212	733.52747	6.94504	505.81967	-14.06324	1308.17456	-961.93671	
2493	24.920	-800.60352	8.88622	-638.76080	769.39594	10.26419	-644.40741	-708.78351	8.05731	496.26428	733.52679	6.94117	505.83566	-13.97172	1308.20337	-961.83197	
2494	24.930	-800.62653	8.79940	-638.79736	769.36633	10.23643	-644.41638	-708.83966	8.04808	496.25717	733.41559	6.86193	505.87057	-14.02069	1308.14575	-961.73889	
2495	24.940	-800.51086	8.68455	-638.88727	769.35846	10.19790	-644.34302	-708.79504	8.03234	496.24405	733.41132	6.84816	505.91205	-14.06478	1308.12305	-961.65784	
2496	24.950	-800.49054	8.85907	-638.87579	769.39246	10.17734	-644.40045	-708.83923	8.04919	496.22852	733.39172	6.87866	505.92386	-14.00976	1308.17334	-961.64600	
2497	24.960	-800.61011	8.90949	-638.75800	769.38678	10.21389	-644.37543	-708.82135	8.11360	496.26672	733.46912	6.94088	505.82800	-14.08715	1308.20117	-961.66083	
2498	24.970	-800.63879	8.94979	-638.73352	769.38751	10.29521	-644.43506	-708.82672	8.06894	496.22174	733.21600	6.97555	505.97296	-14.07027	1308.18970	-961.70648	
2499	24.980	-800.59399	8.79221	-638.86035	769.42029	10.25115	-644.42120	-708.85449	8.09820	496.26389	733.44995	6.90453	505.84723	-14.03305	1308.17847	-961.80127	
2500	24.990	-800.58392	8.73732	-638.85681	769.40314	10.19164	-644.37561	-708.87531	8.11958	496.21033	733.42554	6.91394	505.86453	-14.05302	1308.10742	-961.86975	
2501	25.000	-800.46393	8.72779	-638.93335	769.40515	10.16233	-644.42334	-708.78558	8.08080	496.22610	733.49011	6.93021	505.88327	-13.93683	1308.03955	-961.92908	
2502	25.010	-800.53687	8.84965	-638.83661	769.36719	10.18419	-644.40790	-708.77924	8.06341	496.26080	733.49072	6.92840	505.86014	-14.03124	1308.11292	-962.11414	
2503	25.020	-800.62323	8.93609	-638.73370	769.38831	10.24280	-644.38373	-708.77783	8.09986	496.25491	733.48767	6.94024	505.82996	-13.99291	1308.15137	-962.16119	
2504	25.030	-800.60217	8.88748	-638.75586	769.43732	10.24382	-644.39459	-708.84680	8.08021	496.24368	733.26263	6.95600	506.00180	-14.02800	1308.23413	-962.18152	
